<mxfile host="app.diagrams.net" agent="Mozilla/5.0 (Windows NT 10.0; Win64; x64) AppleWebKit/537.36 (KHTML, like Gecko) Chrome/131.0.0.0 Safari/537.36" version="26.0.4">
  <diagram name="第 1 页" id="hbKFF-OKExzjQjpJoKSN">
    <mxGraphModel dx="2440" dy="1292" grid="1" gridSize="10" guides="1" tooltips="1" connect="1" arrows="1" fold="1" page="1" pageScale="1" pageWidth="1920" pageHeight="1200" math="0" shadow="0">
      <root>
        <mxCell id="0" />
        <mxCell id="1" parent="0" />
        <mxCell id="ykKe54kiTIuj04Uihu3i-138" value="" style="rounded=1;whiteSpace=wrap;html=1;arcSize=2;strokeWidth=2;dashed=1;fillColor=#f5f5f5;strokeColor=#666666;fontColor=#333333;" parent="1" vertex="1">
          <mxGeometry x="932" y="430" width="770" height="370" as="geometry" />
        </mxCell>
        <mxCell id="ykKe54kiTIuj04Uihu3i-137" value="" style="rounded=1;whiteSpace=wrap;html=1;arcSize=2;strokeWidth=2;dashed=1;fillColor=#f5f5f5;strokeColor=#666666;fontColor=#333333;" parent="1" vertex="1">
          <mxGeometry x="932" y="40" width="770" height="350" as="geometry" />
        </mxCell>
        <mxCell id="ykKe54kiTIuj04Uihu3i-136" value="" style="rounded=1;whiteSpace=wrap;html=1;arcSize=2;strokeWidth=2;dashed=1;fillColor=#f5f5f5;strokeColor=#666666;fontColor=#333333;" parent="1" vertex="1">
          <mxGeometry x="20" y="40" width="870" height="760" as="geometry" />
        </mxCell>
        <mxCell id="ykKe54kiTIuj04Uihu3i-77" value="" style="rounded=0;whiteSpace=wrap;html=1;" parent="1" vertex="1">
          <mxGeometry x="957" y="117" width="120" height="100" as="geometry" />
        </mxCell>
        <mxCell id="ykKe54kiTIuj04Uihu3i-45" value="" style="rounded=1;whiteSpace=wrap;html=1;arcSize=7;fillColor=#eeeeee;strokeColor=#36393d;strokeWidth=3;" parent="1" vertex="1">
          <mxGeometry x="185" y="525" width="180" height="50" as="geometry" />
        </mxCell>
        <mxCell id="ykKe54kiTIuj04Uihu3i-31" value="" style="rounded=1;whiteSpace=wrap;html=1;arcSize=7;strokeWidth=3;fillColor=#eeeeee;strokeColor=#36393d;" parent="1" vertex="1">
          <mxGeometry x="185" y="283" width="120" height="210" as="geometry" />
        </mxCell>
        <mxCell id="ykKe54kiTIuj04Uihu3i-3" value="" style="rounded=1;whiteSpace=wrap;html=1;arcSize=50;" parent="1" vertex="1">
          <mxGeometry x="120" y="70" width="750" height="60" as="geometry" />
        </mxCell>
        <mxCell id="ykKe54kiTIuj04Uihu3i-2" value="&lt;font face=&quot;Comic Sans MS&quot;&gt;&lt;span style=&quot;font-size: 24px;&quot;&gt;A &lt;font&gt;beautiful&lt;/font&gt;&amp;nbsp;cat wearing a yellow bandanna sitting on log&lt;/span&gt;&lt;/font&gt;" style="text;html=1;align=center;verticalAlign=middle;whiteSpace=wrap;rounded=0;" parent="1" vertex="1">
          <mxGeometry x="181.5" y="60" width="640" height="80" as="geometry" />
        </mxCell>
        <mxCell id="ykKe54kiTIuj04Uihu3i-43" style="edgeStyle=orthogonalEdgeStyle;rounded=0;orthogonalLoop=1;jettySize=auto;html=1;exitX=0;exitY=0.5;exitDx=0;exitDy=0;entryX=0;entryY=0.5;entryDx=0;entryDy=0;" parent="1" source="ykKe54kiTIuj04Uihu3i-4" target="ykKe54kiTIuj04Uihu3i-33" edge="1">
          <mxGeometry relative="1" as="geometry">
            <Array as="points">
              <mxPoint x="70" y="210" />
              <mxPoint x="70" y="550" />
            </Array>
          </mxGeometry>
        </mxCell>
        <mxCell id="ykKe54kiTIuj04Uihu3i-4" value="" style="rounded=1;whiteSpace=wrap;html=1;arcSize=50;" parent="1" vertex="1">
          <mxGeometry x="120" y="180" width="750" height="60" as="geometry" />
        </mxCell>
        <mxCell id="ykKe54kiTIuj04Uihu3i-5" value="&lt;font face=&quot;Comic Sans MS&quot;&gt;&lt;span style=&quot;font-size: 24px;&quot;&gt;A &lt;font&gt;beautiful&lt;/font&gt;&amp;nbsp;&lt;font style=&quot;color: rgb(241, 156, 153);&quot;&gt;&lt;u&gt;cat&lt;/u&gt;&lt;/font&gt; wearing a yellow &lt;font style=&quot;color: rgb(241, 156, 153);&quot;&gt;&lt;u&gt;bandanna&lt;/u&gt;&lt;/font&gt; sitting on &lt;font style=&quot;color: rgb(241, 156, 153);&quot;&gt;&lt;u&gt;log&lt;/u&gt;&lt;/font&gt;&lt;/span&gt;&lt;/font&gt;" style="text;html=1;align=center;verticalAlign=middle;whiteSpace=wrap;rounded=0;" parent="1" vertex="1">
          <mxGeometry x="175" y="170" width="640" height="80" as="geometry" />
        </mxCell>
        <mxCell id="ykKe54kiTIuj04Uihu3i-6" value="" style="endArrow=classic;html=1;rounded=0;" parent="1" edge="1">
          <mxGeometry width="50" height="50" relative="1" as="geometry">
            <mxPoint x="150" y="130" as="sourcePoint" />
            <mxPoint x="150" y="170" as="targetPoint" />
          </mxGeometry>
        </mxCell>
        <mxCell id="ykKe54kiTIuj04Uihu3i-7" value="POS Filter" style="text;strokeColor=none;align=center;fillColor=none;html=1;verticalAlign=middle;whiteSpace=wrap;rounded=0;fontSize=16;fontStyle=1;fontColor=light-dark(#CC0000,#EDEDED);" parent="1" vertex="1">
          <mxGeometry x="160" y="140" width="90" height="30" as="geometry" />
        </mxCell>
        <mxCell id="ykKe54kiTIuj04Uihu3i-8" value="&lt;u style=&quot;font-family: &amp;quot;Comic Sans MS&amp;quot;; font-size: 24px;&quot;&gt;&lt;font style=&quot;color: rgb(0, 0, 0);&quot;&gt;cat&lt;/font&gt;&lt;/u&gt;" style="rounded=0;whiteSpace=wrap;html=1;fillColor=#fad9d5;strokeColor=#ae4132;" parent="1" vertex="1">
          <mxGeometry x="190" y="350" width="110" height="40" as="geometry" />
        </mxCell>
        <mxCell id="ykKe54kiTIuj04Uihu3i-14" value="&lt;span style=&quot;font-family: &amp;quot;Comic Sans MS&amp;quot;; font-size: 24px;&quot;&gt;&lt;font style=&quot;color: rgb(0, 0, 0);&quot;&gt;A&lt;/font&gt;&lt;/span&gt;" style="rounded=0;whiteSpace=wrap;html=1;" parent="1" vertex="1">
          <mxGeometry x="130" y="290" width="50" height="40" as="geometry" />
        </mxCell>
        <mxCell id="ykKe54kiTIuj04Uihu3i-15" value="&lt;span style=&quot;font-family: &amp;quot;Comic Sans MS&amp;quot;; font-size: 24px;&quot;&gt;&lt;font style=&quot;color: rgb(0, 0, 0);&quot;&gt;beautiful&lt;/font&gt;&lt;/span&gt;" style="rounded=0;whiteSpace=wrap;html=1;fillColor=#dae8fc;strokeColor=#6c8ebf;" parent="1" vertex="1">
          <mxGeometry x="190" y="290" width="110" height="40" as="geometry" />
        </mxCell>
        <mxCell id="ykKe54kiTIuj04Uihu3i-16" value="&lt;span style=&quot;font-family: &amp;quot;Comic Sans MS&amp;quot;; font-size: 24px;&quot;&gt;&lt;font style=&quot;color: rgb(0, 0, 0);&quot;&gt;wearing&lt;/font&gt;&lt;/span&gt;" style="rounded=0;whiteSpace=wrap;html=1;" parent="1" vertex="1">
          <mxGeometry x="368" y="290" width="90" height="40" as="geometry" />
        </mxCell>
        <mxCell id="ykKe54kiTIuj04Uihu3i-17" value="&lt;span style=&quot;font-family: &amp;quot;Comic Sans MS&amp;quot;; font-size: 24px;&quot;&gt;&lt;font style=&quot;color: rgb(0, 0, 0);&quot;&gt;yellow&lt;/font&gt;&lt;/span&gt;" style="rounded=0;whiteSpace=wrap;html=1;" parent="1" vertex="1">
          <mxGeometry x="465" y="290" width="73" height="40" as="geometry" />
        </mxCell>
        <mxCell id="ykKe54kiTIuj04Uihu3i-18" value="&lt;span style=&quot;font-family: &amp;quot;Comic Sans MS&amp;quot;; font-size: 24px;&quot;&gt;&lt;font style=&quot;color: rgb(0, 0, 0);&quot;&gt;bandanna&lt;/font&gt;&lt;/span&gt;" style="rounded=0;whiteSpace=wrap;html=1;" parent="1" vertex="1">
          <mxGeometry x="545" y="290" width="110" height="40" as="geometry" />
        </mxCell>
        <mxCell id="ykKe54kiTIuj04Uihu3i-19" value="&lt;span style=&quot;font-family: &amp;quot;Comic Sans MS&amp;quot;; font-size: 24px;&quot;&gt;&lt;font style=&quot;color: rgb(0, 0, 0);&quot;&gt;sitting&lt;/font&gt;&lt;/span&gt;" style="rounded=0;whiteSpace=wrap;html=1;" parent="1" vertex="1">
          <mxGeometry x="662" y="290" width="86" height="40" as="geometry" />
        </mxCell>
        <mxCell id="ykKe54kiTIuj04Uihu3i-20" value="&lt;span style=&quot;font-family: &amp;quot;Comic Sans MS&amp;quot;; font-size: 24px;&quot;&gt;&lt;font style=&quot;color: rgb(0, 0, 0);&quot;&gt;on&lt;/font&gt;&lt;/span&gt;" style="rounded=0;whiteSpace=wrap;html=1;" parent="1" vertex="1">
          <mxGeometry x="754" y="290" width="46" height="40" as="geometry" />
        </mxCell>
        <mxCell id="ykKe54kiTIuj04Uihu3i-21" value="&lt;span style=&quot;font-family: &amp;quot;Comic Sans MS&amp;quot;; font-size: 24px;&quot;&gt;&lt;font style=&quot;color: rgb(0, 0, 0);&quot;&gt;log&lt;/font&gt;&lt;/span&gt;" style="rounded=0;whiteSpace=wrap;html=1;" parent="1" vertex="1">
          <mxGeometry x="806" y="290" width="46" height="40" as="geometry" />
        </mxCell>
        <mxCell id="ykKe54kiTIuj04Uihu3i-23" value="" style="endArrow=classic;html=1;rounded=0;" parent="1" edge="1">
          <mxGeometry width="50" height="50" relative="1" as="geometry">
            <mxPoint x="150" y="240" as="sourcePoint" />
            <mxPoint x="150" y="280" as="targetPoint" />
          </mxGeometry>
        </mxCell>
        <mxCell id="ykKe54kiTIuj04Uihu3i-25" value="Word Split type 1" style="text;strokeColor=none;align=center;fillColor=none;html=1;verticalAlign=middle;whiteSpace=wrap;rounded=0;fontSize=16;fontStyle=1;fontColor=light-dark(#CC0000,#EDEDED);" parent="1" vertex="1">
          <mxGeometry x="160" y="250" width="140" height="30" as="geometry" />
        </mxCell>
        <mxCell id="ykKe54kiTIuj04Uihu3i-28" value="&lt;u style=&quot;font-family: &amp;quot;Comic Sans MS&amp;quot;; font-size: 24px;&quot;&gt;&lt;font style=&quot;color: rgb(0, 0, 0);&quot;&gt;bandanna&lt;/font&gt;&lt;/u&gt;" style="rounded=0;whiteSpace=wrap;html=1;fillColor=#fad9d5;strokeColor=#ae4132;" parent="1" vertex="1">
          <mxGeometry x="190" y="397" width="110" height="40" as="geometry" />
        </mxCell>
        <mxCell id="ykKe54kiTIuj04Uihu3i-29" value="&lt;u style=&quot;font-family: &amp;quot;Comic Sans MS&amp;quot;; font-size: 24px;&quot;&gt;&lt;font style=&quot;color: rgb(0, 0, 0);&quot;&gt;log&lt;/font&gt;&lt;/u&gt;" style="rounded=0;whiteSpace=wrap;html=1;fillColor=#fad9d5;strokeColor=#ae4132;" parent="1" vertex="1">
          <mxGeometry x="190" y="447" width="110" height="40" as="geometry" />
        </mxCell>
        <mxCell id="ykKe54kiTIuj04Uihu3i-33" value="&lt;span style=&quot;font-family: &amp;quot;Comic Sans MS&amp;quot;; font-size: 24px;&quot;&gt;&lt;font style=&quot;color: rgb(0, 0, 0);&quot;&gt;A&lt;/font&gt;&lt;/span&gt;" style="rounded=0;whiteSpace=wrap;html=1;" parent="1" vertex="1">
          <mxGeometry x="130" y="530" width="50" height="40" as="geometry" />
        </mxCell>
        <mxCell id="ykKe54kiTIuj04Uihu3i-34" value="&lt;span style=&quot;font-family: &amp;quot;Comic Sans MS&amp;quot;; font-size: 24px;&quot;&gt;&lt;font style=&quot;color: rgb(0, 0, 0);&quot;&gt;beautiful&lt;/font&gt;&lt;/span&gt;" style="rounded=0;whiteSpace=wrap;html=1;fillColor=#dae8fc;strokeColor=#6c8ebf;" parent="1" vertex="1">
          <mxGeometry x="190" y="530" width="110" height="40" as="geometry" />
        </mxCell>
        <mxCell id="ykKe54kiTIuj04Uihu3i-35" value="&lt;span style=&quot;font-family: &amp;quot;Comic Sans MS&amp;quot;; font-size: 24px;&quot;&gt;&lt;font style=&quot;color: rgb(0, 0, 0);&quot;&gt;wearing&lt;/font&gt;&lt;/span&gt;" style="rounded=0;whiteSpace=wrap;html=1;" parent="1" vertex="1">
          <mxGeometry x="371" y="530" width="90" height="40" as="geometry" />
        </mxCell>
        <mxCell id="ykKe54kiTIuj04Uihu3i-36" value="&lt;span style=&quot;font-family: &amp;quot;Comic Sans MS&amp;quot;; font-size: 24px;&quot;&gt;&lt;font style=&quot;color: rgb(0, 0, 0);&quot;&gt;yellow&lt;/font&gt;&lt;/span&gt;" style="rounded=0;whiteSpace=wrap;html=1;" parent="1" vertex="1">
          <mxGeometry x="469" y="530" width="73" height="40" as="geometry" />
        </mxCell>
        <mxCell id="ykKe54kiTIuj04Uihu3i-37" value="&lt;span style=&quot;font-family: &amp;quot;Comic Sans MS&amp;quot;; font-size: 24px;&quot;&gt;&lt;font style=&quot;color: rgb(241, 156, 153);&quot;&gt;&lt;u&gt;bandanna&lt;/u&gt;&lt;/font&gt;&lt;/span&gt;" style="rounded=0;whiteSpace=wrap;html=1;" parent="1" vertex="1">
          <mxGeometry x="549" y="530" width="110" height="40" as="geometry" />
        </mxCell>
        <mxCell id="ykKe54kiTIuj04Uihu3i-38" value="&lt;span style=&quot;font-family: &amp;quot;Comic Sans MS&amp;quot;; font-size: 24px;&quot;&gt;&lt;font style=&quot;color: rgb(0, 0, 0);&quot;&gt;sitting&lt;/font&gt;&lt;/span&gt;" style="rounded=0;whiteSpace=wrap;html=1;" parent="1" vertex="1">
          <mxGeometry x="668" y="530" width="86" height="40" as="geometry" />
        </mxCell>
        <mxCell id="ykKe54kiTIuj04Uihu3i-39" value="&lt;span style=&quot;font-family: &amp;quot;Comic Sans MS&amp;quot;; font-size: 24px;&quot;&gt;&lt;font style=&quot;color: rgb(0, 0, 0);&quot;&gt;on&lt;/font&gt;&lt;/span&gt;" style="rounded=0;whiteSpace=wrap;html=1;" parent="1" vertex="1">
          <mxGeometry x="760" y="530" width="46" height="40" as="geometry" />
        </mxCell>
        <mxCell id="ykKe54kiTIuj04Uihu3i-40" value="&lt;u style=&quot;font-family: &amp;quot;Comic Sans MS&amp;quot;; font-size: 24px;&quot;&gt;log&lt;/u&gt;" style="rounded=0;whiteSpace=wrap;html=1;fontColor=#F19C99;fontStyle=4" parent="1" vertex="1">
          <mxGeometry x="812" y="530" width="46" height="40" as="geometry" />
        </mxCell>
        <mxCell id="ykKe54kiTIuj04Uihu3i-41" value="&lt;u style=&quot;font-family: &amp;quot;Comic Sans MS&amp;quot;; font-size: 24px;&quot;&gt;&lt;font style=&quot;color: rgb(0, 0, 0);&quot;&gt;cat&lt;/font&gt;&lt;/u&gt;" style="rounded=0;whiteSpace=wrap;html=1;fillColor=#fad9d5;strokeColor=#ae4132;fontStyle=4" parent="1" vertex="1">
          <mxGeometry x="310" y="530" width="50" height="40" as="geometry" />
        </mxCell>
        <mxCell id="ykKe54kiTIuj04Uihu3i-44" value="&lt;span style=&quot;color: rgb(204, 0, 0); font-family: Helvetica; font-size: 16px; font-style: normal; font-variant-ligatures: normal; font-variant-caps: normal; font-weight: 700; letter-spacing: normal; orphans: 2; text-indent: 0px; text-transform: none; widows: 2; word-spacing: 0px; -webkit-text-stroke-width: 0px; white-space: normal; background-color: rgb(251, 251, 251); text-decoration-thickness: initial; text-decoration-style: initial; text-decoration-color: initial; float: none; display: inline !important;&quot;&gt;Word Split type 2&lt;/span&gt;" style="text;whiteSpace=wrap;html=1;horizontal=1;rotation=-90;verticalAlign=top;align=center;" parent="1" vertex="1">
          <mxGeometry x="-50" y="350" width="200" height="40" as="geometry" />
        </mxCell>
        <mxCell id="ykKe54kiTIuj04Uihu3i-46" value="" style="rounded=1;whiteSpace=wrap;html=1;arcSize=7;fillColor=#eeeeee;strokeColor=#36393d;strokeWidth=3;" parent="1" vertex="1">
          <mxGeometry x="305" y="590" width="160" height="50" as="geometry" />
        </mxCell>
        <mxCell id="ykKe54kiTIuj04Uihu3i-47" value="&lt;span style=&quot;font-family: &amp;quot;Comic Sans MS&amp;quot;; font-size: 24px;&quot;&gt;&lt;font style=&quot;color: rgb(0, 0, 0);&quot;&gt;A&lt;/font&gt;&lt;/span&gt;" style="rounded=0;whiteSpace=wrap;html=1;" parent="1" vertex="1">
          <mxGeometry x="130" y="595" width="50" height="40" as="geometry" />
        </mxCell>
        <mxCell id="ykKe54kiTIuj04Uihu3i-48" value="&lt;span style=&quot;font-family: &amp;quot;Comic Sans MS&amp;quot;; font-size: 24px;&quot;&gt;&lt;font style=&quot;color: rgb(0, 0, 0);&quot;&gt;beautiful&lt;/font&gt;&lt;/span&gt;" style="rounded=0;whiteSpace=wrap;html=1;" parent="1" vertex="1">
          <mxGeometry x="190" y="595" width="110" height="40" as="geometry" />
        </mxCell>
        <mxCell id="ykKe54kiTIuj04Uihu3i-49" value="&lt;span style=&quot;font-family: &amp;quot;Comic Sans MS&amp;quot;; font-size: 24px;&quot;&gt;&lt;font style=&quot;color: rgb(0, 0, 0);&quot;&gt;wearing&lt;/font&gt;&lt;/span&gt;" style="rounded=0;whiteSpace=wrap;html=1;fillColor=#cce5ff;strokeColor=#36393d;" parent="1" vertex="1">
          <mxGeometry x="371" y="595" width="90" height="40" as="geometry" />
        </mxCell>
        <mxCell id="ykKe54kiTIuj04Uihu3i-50" value="&lt;span style=&quot;font-family: &amp;quot;Comic Sans MS&amp;quot;; font-size: 24px;&quot;&gt;&lt;font style=&quot;color: rgb(0, 0, 0);&quot;&gt;yellow&lt;/font&gt;&lt;/span&gt;" style="rounded=0;whiteSpace=wrap;html=1;" parent="1" vertex="1">
          <mxGeometry x="469" y="595" width="73" height="40" as="geometry" />
        </mxCell>
        <mxCell id="ykKe54kiTIuj04Uihu3i-51" value="&lt;span style=&quot;font-family: &amp;quot;Comic Sans MS&amp;quot;; font-size: 24px;&quot;&gt;&lt;font style=&quot;color: rgb(241, 156, 153);&quot;&gt;&lt;u&gt;bandanna&lt;/u&gt;&lt;/font&gt;&lt;/span&gt;" style="rounded=0;whiteSpace=wrap;html=1;" parent="1" vertex="1">
          <mxGeometry x="549" y="595" width="110" height="40" as="geometry" />
        </mxCell>
        <mxCell id="ykKe54kiTIuj04Uihu3i-52" value="&lt;span style=&quot;font-family: &amp;quot;Comic Sans MS&amp;quot;; font-size: 24px;&quot;&gt;&lt;font style=&quot;color: rgb(0, 0, 0);&quot;&gt;sitting&lt;/font&gt;&lt;/span&gt;" style="rounded=0;whiteSpace=wrap;html=1;" parent="1" vertex="1">
          <mxGeometry x="668" y="595" width="86" height="40" as="geometry" />
        </mxCell>
        <mxCell id="ykKe54kiTIuj04Uihu3i-53" value="&lt;span style=&quot;font-family: &amp;quot;Comic Sans MS&amp;quot;; font-size: 24px;&quot;&gt;&lt;font style=&quot;color: rgb(0, 0, 0);&quot;&gt;on&lt;/font&gt;&lt;/span&gt;" style="rounded=0;whiteSpace=wrap;html=1;" parent="1" vertex="1">
          <mxGeometry x="760" y="595" width="46" height="40" as="geometry" />
        </mxCell>
        <mxCell id="ykKe54kiTIuj04Uihu3i-54" value="&lt;u style=&quot;font-family: &amp;quot;Comic Sans MS&amp;quot;; font-size: 24px;&quot;&gt;log&lt;/u&gt;" style="rounded=0;whiteSpace=wrap;html=1;fontColor=#F19C99;fontStyle=4" parent="1" vertex="1">
          <mxGeometry x="812" y="595" width="46" height="40" as="geometry" />
        </mxCell>
        <mxCell id="ykKe54kiTIuj04Uihu3i-55" value="&lt;u style=&quot;font-family: &amp;quot;Comic Sans MS&amp;quot;; font-size: 24px;&quot;&gt;&lt;font style=&quot;color: rgb(0, 0, 0);&quot;&gt;cat&lt;/font&gt;&lt;/u&gt;" style="rounded=0;whiteSpace=wrap;html=1;fillColor=#fad9d5;strokeColor=#ae4132;fontStyle=4" parent="1" vertex="1">
          <mxGeometry x="310" y="595" width="50" height="40" as="geometry" />
        </mxCell>
        <mxCell id="ykKe54kiTIuj04Uihu3i-56" value="" style="rounded=1;whiteSpace=wrap;html=1;arcSize=7;fillColor=#eeeeee;strokeColor=#36393d;strokeWidth=3;" parent="1" vertex="1">
          <mxGeometry x="464" y="650" width="200" height="50" as="geometry" />
        </mxCell>
        <mxCell id="ykKe54kiTIuj04Uihu3i-57" value="&lt;span style=&quot;font-family: &amp;quot;Comic Sans MS&amp;quot;; font-size: 24px;&quot;&gt;&lt;font style=&quot;color: rgb(0, 0, 0);&quot;&gt;A&lt;/font&gt;&lt;/span&gt;" style="rounded=0;whiteSpace=wrap;html=1;" parent="1" vertex="1">
          <mxGeometry x="130" y="655" width="50" height="40" as="geometry" />
        </mxCell>
        <mxCell id="ykKe54kiTIuj04Uihu3i-58" value="&lt;span style=&quot;font-family: &amp;quot;Comic Sans MS&amp;quot;; font-size: 24px;&quot;&gt;&lt;font style=&quot;color: rgb(0, 0, 0);&quot;&gt;beautiful&lt;/font&gt;&lt;/span&gt;" style="rounded=0;whiteSpace=wrap;html=1;" parent="1" vertex="1">
          <mxGeometry x="190" y="655" width="110" height="40" as="geometry" />
        </mxCell>
        <mxCell id="ykKe54kiTIuj04Uihu3i-59" value="&lt;span style=&quot;font-family: &amp;quot;Comic Sans MS&amp;quot;; font-size: 24px;&quot;&gt;&lt;font style=&quot;color: rgb(0, 0, 0);&quot;&gt;wearing&lt;/font&gt;&lt;/span&gt;" style="rounded=0;whiteSpace=wrap;html=1;" parent="1" vertex="1">
          <mxGeometry x="371" y="655" width="90" height="40" as="geometry" />
        </mxCell>
        <mxCell id="ykKe54kiTIuj04Uihu3i-60" value="&lt;span style=&quot;font-family: &amp;quot;Comic Sans MS&amp;quot;; font-size: 24px;&quot;&gt;&lt;font style=&quot;color: rgb(0, 0, 0);&quot;&gt;yellow&lt;/font&gt;&lt;/span&gt;" style="rounded=0;whiteSpace=wrap;html=1;fillColor=#cce5ff;strokeColor=#36393d;" parent="1" vertex="1">
          <mxGeometry x="469" y="655" width="73" height="40" as="geometry" />
        </mxCell>
        <mxCell id="ykKe54kiTIuj04Uihu3i-61" value="&lt;span style=&quot;font-family: &amp;quot;Comic Sans MS&amp;quot;; font-size: 24px;&quot;&gt;&lt;font style=&quot;color: rgb(0, 0, 0);&quot;&gt;&lt;u style=&quot;&quot;&gt;bandanna&lt;/u&gt;&lt;/font&gt;&lt;/span&gt;" style="rounded=0;whiteSpace=wrap;html=1;fillColor=#f8cecc;strokeColor=#b85450;" parent="1" vertex="1">
          <mxGeometry x="549" y="655" width="110" height="40" as="geometry" />
        </mxCell>
        <mxCell id="ykKe54kiTIuj04Uihu3i-62" value="&lt;span style=&quot;font-family: &amp;quot;Comic Sans MS&amp;quot;; font-size: 24px;&quot;&gt;&lt;font style=&quot;color: rgb(0, 0, 0);&quot;&gt;sitting&lt;/font&gt;&lt;/span&gt;" style="rounded=0;whiteSpace=wrap;html=1;" parent="1" vertex="1">
          <mxGeometry x="668" y="655" width="86" height="40" as="geometry" />
        </mxCell>
        <mxCell id="ykKe54kiTIuj04Uihu3i-63" value="&lt;span style=&quot;font-family: &amp;quot;Comic Sans MS&amp;quot;; font-size: 24px;&quot;&gt;&lt;font style=&quot;color: rgb(0, 0, 0);&quot;&gt;on&lt;/font&gt;&lt;/span&gt;" style="rounded=0;whiteSpace=wrap;html=1;" parent="1" vertex="1">
          <mxGeometry x="760" y="655" width="46" height="40" as="geometry" />
        </mxCell>
        <mxCell id="ykKe54kiTIuj04Uihu3i-64" value="&lt;u style=&quot;font-family: &amp;quot;Comic Sans MS&amp;quot;; font-size: 24px;&quot;&gt;log&lt;/u&gt;" style="rounded=0;whiteSpace=wrap;html=1;fontColor=#F19C99;fontStyle=4" parent="1" vertex="1">
          <mxGeometry x="812" y="655" width="46" height="40" as="geometry" />
        </mxCell>
        <mxCell id="ykKe54kiTIuj04Uihu3i-65" value="&lt;u style=&quot;color: rgb(241, 156, 153); font-family: &amp;quot;Comic Sans MS&amp;quot;; font-size: 24px;&quot;&gt;cat&lt;/u&gt;" style="rounded=0;whiteSpace=wrap;html=1;fontStyle=4" parent="1" vertex="1">
          <mxGeometry x="310" y="655" width="50" height="40" as="geometry" />
        </mxCell>
        <mxCell id="ykKe54kiTIuj04Uihu3i-67" value="" style="endArrow=classic;html=1;rounded=0;" parent="1" edge="1">
          <mxGeometry width="50" height="50" relative="1" as="geometry">
            <mxPoint x="310" y="387.5" as="sourcePoint" />
            <mxPoint x="450" y="388" as="targetPoint" />
          </mxGeometry>
        </mxCell>
        <mxCell id="ykKe54kiTIuj04Uihu3i-68" value="&lt;span style=&quot;font-family: &amp;quot;Comic Sans MS&amp;quot;; font-size: 24px;&quot;&gt;&lt;font style=&quot;color: rgb(0, 0, 0);&quot;&gt;cat&lt;/font&gt;&lt;/span&gt;" style="rounded=0;whiteSpace=wrap;html=1;fontStyle=4" parent="1" vertex="1">
          <mxGeometry x="310" y="290" width="50" height="40" as="geometry" />
        </mxCell>
        <mxCell id="ykKe54kiTIuj04Uihu3i-69" value="Window slide" style="text;strokeColor=none;align=center;fillColor=none;html=1;verticalAlign=middle;whiteSpace=wrap;rounded=0;fontSize=16;fontStyle=1;fontColor=light-dark(#CC0000,#EDEDED);" parent="1" vertex="1">
          <mxGeometry x="305" y="355" width="140" height="30" as="geometry" />
        </mxCell>
        <mxCell id="ykKe54kiTIuj04Uihu3i-70" value="" style="endArrow=classic;html=1;rounded=0;" parent="1" edge="1">
          <mxGeometry width="50" height="50" relative="1" as="geometry">
            <mxPoint x="485" y="742.5" as="sourcePoint" />
            <mxPoint x="625" y="743" as="targetPoint" />
          </mxGeometry>
        </mxCell>
        <mxCell id="ykKe54kiTIuj04Uihu3i-71" value="Window slide" style="text;strokeColor=none;align=center;fillColor=none;html=1;verticalAlign=middle;whiteSpace=wrap;rounded=0;fontSize=16;fontStyle=1;fontColor=light-dark(#CC0000,#EDEDED);" parent="1" vertex="1">
          <mxGeometry x="480" y="710" width="140" height="30" as="geometry" />
        </mxCell>
        <mxCell id="ykKe54kiTIuj04Uihu3i-72" value="&lt;u style=&quot;font-family: &amp;quot;Comic Sans MS&amp;quot;; font-size: 24px;&quot;&gt;&lt;font style=&quot;color: rgb(0, 0, 0);&quot;&gt;cat&lt;/font&gt;&lt;/u&gt;" style="rounded=0;whiteSpace=wrap;html=1;fillColor=#fad9d5;strokeColor=#ae4132;" parent="1" vertex="1">
          <mxGeometry x="962" y="172" width="110" height="40" as="geometry" />
        </mxCell>
        <mxCell id="ykKe54kiTIuj04Uihu3i-73" value="&lt;span style=&quot;font-family: &amp;quot;Comic Sans MS&amp;quot;; font-size: 24px;&quot;&gt;&lt;font style=&quot;color: rgb(0, 0, 0);&quot;&gt;beautiful&lt;/font&gt;&lt;/span&gt;" style="rounded=0;whiteSpace=wrap;html=1;fillColor=#dae8fc;strokeColor=#6c8ebf;" parent="1" vertex="1">
          <mxGeometry x="962" y="122" width="110" height="40" as="geometry" />
        </mxCell>
        <mxCell id="ykKe54kiTIuj04Uihu3i-76" value="&lt;u style=&quot;font-family: &amp;quot;Comic Sans MS&amp;quot;; font-size: 24px;&quot;&gt;&lt;font style=&quot;color: rgb(0, 0, 0);&quot;&gt;cat&lt;/font&gt;&lt;/u&gt;" style="rounded=0;whiteSpace=wrap;html=1;fillColor=#fad9d5;strokeColor=#ae4132;" parent="1" vertex="1">
          <mxGeometry x="962" y="252" width="110" height="40" as="geometry" />
        </mxCell>
        <mxCell id="ykKe54kiTIuj04Uihu3i-81" value="&lt;font face=&quot;Times New Roman&quot; style=&quot;font-size: 22px;&quot;&gt;CLIP&lt;/font&gt;&lt;div&gt;&lt;font face=&quot;Times New Roman&quot; style=&quot;font-size: 22px;&quot;&gt;Text&lt;/font&gt;&lt;/div&gt;&lt;div&gt;&lt;font face=&quot;Times New Roman&quot; style=&quot;font-size: 22px;&quot;&gt;Encoder&lt;/font&gt;&lt;/div&gt;" style="rounded=1;whiteSpace=wrap;html=1;fillColor=#d5e8d4;strokeColor=#82b366;" parent="1" vertex="1">
          <mxGeometry x="1122" y="117" width="100" height="185" as="geometry" />
        </mxCell>
        <mxCell id="ykKe54kiTIuj04Uihu3i-82" value="" style="endArrow=classic;html=1;rounded=0;" parent="1" edge="1">
          <mxGeometry width="50" height="50" relative="1" as="geometry">
            <mxPoint x="1080" y="168" as="sourcePoint" />
            <mxPoint x="1120" y="168" as="targetPoint" />
          </mxGeometry>
        </mxCell>
        <mxCell id="ykKe54kiTIuj04Uihu3i-83" value="" style="endArrow=classic;html=1;rounded=0;" parent="1" edge="1">
          <mxGeometry width="50" height="50" relative="1" as="geometry">
            <mxPoint x="1080" y="274" as="sourcePoint" />
            <mxPoint x="1120" y="274" as="targetPoint" />
          </mxGeometry>
        </mxCell>
        <mxCell id="ykKe54kiTIuj04Uihu3i-90" value="" style="group;rotation=90;" parent="1" vertex="1" connectable="0">
          <mxGeometry x="1232" y="152" width="100" height="20" as="geometry" />
        </mxCell>
        <mxCell id="ykKe54kiTIuj04Uihu3i-85" value="" style="rounded=0;whiteSpace=wrap;html=1;fillColor=#e1d5e7;strokeColor=#9673a6;rotation=90;" parent="ykKe54kiTIuj04Uihu3i-90" vertex="1">
          <mxGeometry x="40" y="-20" width="20" height="20" as="geometry" />
        </mxCell>
        <mxCell id="ykKe54kiTIuj04Uihu3i-86" value="" style="rounded=0;whiteSpace=wrap;html=1;fillColor=#e1d5e7;strokeColor=#9673a6;rotation=90;" parent="ykKe54kiTIuj04Uihu3i-90" vertex="1">
          <mxGeometry x="38" y="2" width="23.636363636363637" height="20" as="geometry" />
        </mxCell>
        <mxCell id="ykKe54kiTIuj04Uihu3i-87" value="" style="rounded=0;whiteSpace=wrap;html=1;fillColor=#e1d5e7;strokeColor=#9673a6;rotation=90;" parent="ykKe54kiTIuj04Uihu3i-90" vertex="1">
          <mxGeometry x="40" y="20" width="20" height="20" as="geometry" />
        </mxCell>
        <mxCell id="ykKe54kiTIuj04Uihu3i-88" value="" style="rounded=0;whiteSpace=wrap;html=1;fillColor=#e1d5e7;strokeColor=#9673a6;rotation=90;" parent="ykKe54kiTIuj04Uihu3i-90" vertex="1">
          <mxGeometry x="40" y="40" width="20" height="20" as="geometry" />
        </mxCell>
        <mxCell id="ykKe54kiTIuj04Uihu3i-91" value="" style="endArrow=classic;html=1;rounded=0;" parent="1" edge="1">
          <mxGeometry width="50" height="50" relative="1" as="geometry">
            <mxPoint x="1224" y="168.76" as="sourcePoint" />
            <mxPoint x="1264" y="168.76" as="targetPoint" />
          </mxGeometry>
        </mxCell>
        <mxCell id="ykKe54kiTIuj04Uihu3i-93" value="" style="endArrow=classic;html=1;rounded=0;" parent="1" edge="1">
          <mxGeometry width="50" height="50" relative="1" as="geometry">
            <mxPoint x="1224" y="273" as="sourcePoint" />
            <mxPoint x="1264" y="273" as="targetPoint" />
          </mxGeometry>
        </mxCell>
        <mxCell id="ykKe54kiTIuj04Uihu3i-99" value="" style="group;rotation=90;" parent="1" vertex="1" connectable="0">
          <mxGeometry x="1232" y="252" width="100" height="20" as="geometry" />
        </mxCell>
        <mxCell id="ykKe54kiTIuj04Uihu3i-95" value="" style="rounded=0;whiteSpace=wrap;html=1;fillColor=#f8cecc;strokeColor=#b85450;rotation=90;" parent="ykKe54kiTIuj04Uihu3i-99" vertex="1">
          <mxGeometry x="40" y="-20" width="20" height="20" as="geometry" />
        </mxCell>
        <mxCell id="ykKe54kiTIuj04Uihu3i-96" value="" style="rounded=0;whiteSpace=wrap;html=1;fillColor=#f8cecc;strokeColor=#b85450;rotation=90;" parent="ykKe54kiTIuj04Uihu3i-99" vertex="1">
          <mxGeometry x="38" y="2" width="23.636363636363637" height="20" as="geometry" />
        </mxCell>
        <mxCell id="ykKe54kiTIuj04Uihu3i-97" value="" style="rounded=0;whiteSpace=wrap;html=1;fillColor=#f8cecc;strokeColor=#b85450;rotation=90;" parent="ykKe54kiTIuj04Uihu3i-99" vertex="1">
          <mxGeometry x="40" y="20" width="20" height="20" as="geometry" />
        </mxCell>
        <mxCell id="ykKe54kiTIuj04Uihu3i-98" value="" style="rounded=0;whiteSpace=wrap;html=1;fillColor=#f8cecc;strokeColor=#b85450;rotation=90;" parent="ykKe54kiTIuj04Uihu3i-99" vertex="1">
          <mxGeometry x="40" y="40" width="20" height="20" as="geometry" />
        </mxCell>
        <mxCell id="ykKe54kiTIuj04Uihu3i-102" value="&lt;font face=&quot;Times New Roman&quot; style=&quot;font-size: 19px;&quot;&gt;Average projection similarity&lt;/font&gt;" style="rounded=0;whiteSpace=wrap;html=1;rotation=90;fillColor=#fff2cc;strokeColor=#d6b656;align=center;verticalAlign=middle;" parent="1" vertex="1">
          <mxGeometry x="1480" y="195" width="245" height="40" as="geometry" />
        </mxCell>
        <mxCell id="ykKe54kiTIuj04Uihu3i-103" value="" style="rounded=0;whiteSpace=wrap;html=1;" parent="1" vertex="1">
          <mxGeometry x="957" y="482" width="120" height="100" as="geometry" />
        </mxCell>
        <mxCell id="ykKe54kiTIuj04Uihu3i-104" value="&lt;u style=&quot;font-family: &amp;quot;Comic Sans MS&amp;quot;; font-size: 24px;&quot;&gt;&lt;font style=&quot;color: rgb(0, 0, 0);&quot;&gt;cat&lt;/font&gt;&lt;/u&gt;" style="rounded=0;whiteSpace=wrap;html=1;fillColor=#fad9d5;strokeColor=#ae4132;" parent="1" vertex="1">
          <mxGeometry x="962" y="537" width="110" height="40" as="geometry" />
        </mxCell>
        <mxCell id="ykKe54kiTIuj04Uihu3i-105" value="&lt;span style=&quot;font-family: &amp;quot;Comic Sans MS&amp;quot;; font-size: 24px;&quot;&gt;&lt;font style=&quot;color: rgb(0, 0, 0);&quot;&gt;beautiful&lt;/font&gt;&lt;/span&gt;" style="rounded=0;whiteSpace=wrap;html=1;fillColor=#dae8fc;strokeColor=#6c8ebf;" parent="1" vertex="1">
          <mxGeometry x="962" y="487" width="110" height="40" as="geometry" />
        </mxCell>
        <mxCell id="ykKe54kiTIuj04Uihu3i-106" value="&lt;u style=&quot;font-family: &amp;quot;Comic Sans MS&amp;quot;; font-size: 24px;&quot;&gt;&lt;font style=&quot;color: rgb(0, 0, 0);&quot;&gt;cat&lt;/font&gt;&lt;/u&gt;" style="rounded=0;whiteSpace=wrap;html=1;fillColor=#fad9d5;strokeColor=#ae4132;" parent="1" vertex="1">
          <mxGeometry x="962" y="617" width="110" height="40" as="geometry" />
        </mxCell>
        <mxCell id="ykKe54kiTIuj04Uihu3i-107" value="&lt;span style=&quot;font-size: 22px;&quot;&gt;&lt;font face=&quot;Times New Roman&quot;&gt;Bert&lt;/font&gt;&lt;/span&gt;" style="rounded=1;whiteSpace=wrap;html=1;fillColor=#b0e3e6;strokeColor=#0e8088;" parent="1" vertex="1">
          <mxGeometry x="1122" y="482" width="100" height="185" as="geometry" />
        </mxCell>
        <mxCell id="ykKe54kiTIuj04Uihu3i-108" value="" style="endArrow=classic;html=1;rounded=0;" parent="1" edge="1">
          <mxGeometry width="50" height="50" relative="1" as="geometry">
            <mxPoint x="1082" y="527" as="sourcePoint" />
            <mxPoint x="1122" y="527" as="targetPoint" />
          </mxGeometry>
        </mxCell>
        <mxCell id="ykKe54kiTIuj04Uihu3i-109" value="" style="endArrow=classic;html=1;rounded=0;" parent="1" edge="1">
          <mxGeometry width="50" height="50" relative="1" as="geometry">
            <mxPoint x="1082" y="633" as="sourcePoint" />
            <mxPoint x="1122" y="633" as="targetPoint" />
          </mxGeometry>
        </mxCell>
        <mxCell id="ykKe54kiTIuj04Uihu3i-110" value="" style="group;rotation=90;fillColor=#e1d5e7;strokeColor=#9673a6;" parent="1" vertex="1" connectable="0">
          <mxGeometry x="1234" y="512" width="100" height="20" as="geometry" />
        </mxCell>
        <mxCell id="ykKe54kiTIuj04Uihu3i-111" value="" style="rounded=0;whiteSpace=wrap;html=1;fillColor=#e1d5e7;strokeColor=#9673a6;rotation=90;" parent="ykKe54kiTIuj04Uihu3i-110" vertex="1">
          <mxGeometry x="40" y="-20" width="20" height="20" as="geometry" />
        </mxCell>
        <mxCell id="ykKe54kiTIuj04Uihu3i-112" value="" style="rounded=0;whiteSpace=wrap;html=1;fillColor=#e1d5e7;strokeColor=#9673a6;rotation=90;" parent="ykKe54kiTIuj04Uihu3i-110" vertex="1">
          <mxGeometry x="38" y="2" width="23.636363636363637" height="20" as="geometry" />
        </mxCell>
        <mxCell id="ykKe54kiTIuj04Uihu3i-113" value="" style="rounded=0;whiteSpace=wrap;html=1;fillColor=#e1d5e7;strokeColor=#9673a6;rotation=90;" parent="ykKe54kiTIuj04Uihu3i-110" vertex="1">
          <mxGeometry x="40" y="20" width="20" height="20" as="geometry" />
        </mxCell>
        <mxCell id="ykKe54kiTIuj04Uihu3i-114" value="" style="rounded=0;whiteSpace=wrap;html=1;fillColor=#e1d5e7;strokeColor=#9673a6;rotation=90;" parent="ykKe54kiTIuj04Uihu3i-110" vertex="1">
          <mxGeometry x="40" y="40" width="20" height="20" as="geometry" />
        </mxCell>
        <mxCell id="ykKe54kiTIuj04Uihu3i-115" value="" style="endArrow=classic;html=1;rounded=0;" parent="1" edge="1">
          <mxGeometry width="50" height="50" relative="1" as="geometry">
            <mxPoint x="1226" y="528.76" as="sourcePoint" />
            <mxPoint x="1266" y="528.76" as="targetPoint" />
          </mxGeometry>
        </mxCell>
        <mxCell id="ykKe54kiTIuj04Uihu3i-116" value="" style="endArrow=classic;html=1;rounded=0;" parent="1" edge="1">
          <mxGeometry width="50" height="50" relative="1" as="geometry">
            <mxPoint x="1226" y="633" as="sourcePoint" />
            <mxPoint x="1266" y="633" as="targetPoint" />
          </mxGeometry>
        </mxCell>
        <mxCell id="ykKe54kiTIuj04Uihu3i-117" value="" style="group;rotation=90;fillColor=#f8cecc;strokeColor=#b85450;" parent="1" vertex="1" connectable="0">
          <mxGeometry x="1234" y="627" width="100" height="20" as="geometry" />
        </mxCell>
        <mxCell id="ykKe54kiTIuj04Uihu3i-118" value="" style="rounded=0;whiteSpace=wrap;html=1;fillColor=#f8cecc;strokeColor=#b85450;rotation=90;" parent="ykKe54kiTIuj04Uihu3i-117" vertex="1">
          <mxGeometry x="40" y="-20" width="20" height="20" as="geometry" />
        </mxCell>
        <mxCell id="ykKe54kiTIuj04Uihu3i-119" value="" style="rounded=0;whiteSpace=wrap;html=1;fillColor=#f8cecc;strokeColor=#b85450;rotation=90;" parent="ykKe54kiTIuj04Uihu3i-117" vertex="1">
          <mxGeometry x="38" y="2" width="23.636363636363637" height="20" as="geometry" />
        </mxCell>
        <mxCell id="ykKe54kiTIuj04Uihu3i-120" value="" style="rounded=0;whiteSpace=wrap;html=1;fillColor=#f8cecc;strokeColor=#b85450;rotation=90;" parent="ykKe54kiTIuj04Uihu3i-117" vertex="1">
          <mxGeometry x="40" y="20" width="20" height="20" as="geometry" />
        </mxCell>
        <mxCell id="ykKe54kiTIuj04Uihu3i-122" value="&lt;div&gt;&lt;font face=&quot;Times New Roman&quot;&gt;&lt;span style=&quot;font-size: 19px;&quot;&gt;semantic similarity&lt;/span&gt;&lt;/font&gt;&lt;/div&gt;" style="rounded=0;whiteSpace=wrap;html=1;rotation=90;fillColor=#fad7ac;strokeColor=#b46504;align=center;verticalAlign=middle;" parent="1" vertex="1">
          <mxGeometry x="1262" y="567" width="245" height="40" as="geometry" />
        </mxCell>
        <mxCell id="ykKe54kiTIuj04Uihu3i-124" value="" style="shape=sumEllipse;perimeter=ellipsePerimeter;whiteSpace=wrap;html=1;backgroundOutline=1;" parent="1" vertex="1">
          <mxGeometry x="1492" y="563.25" width="35" height="35" as="geometry" />
        </mxCell>
        <mxCell id="ykKe54kiTIuj04Uihu3i-127" value="" style="strokeWidth=1;html=1;shape=mxgraph.flowchart.annotation_2;align=left;labelPosition=right;pointerEvents=1;rotation=-180;" parent="1" vertex="1">
          <mxGeometry x="1302" y="529.5" width="50" height="102.5" as="geometry" />
        </mxCell>
        <mxCell id="ykKe54kiTIuj04Uihu3i-128" value="" style="endArrow=classic;html=1;rounded=0;" parent="1" edge="1">
          <mxGeometry width="50" height="50" relative="1" as="geometry">
            <mxPoint x="1408" y="581" as="sourcePoint" />
            <mxPoint x="1490" y="581" as="targetPoint" />
          </mxGeometry>
        </mxCell>
        <mxCell id="ykKe54kiTIuj04Uihu3i-130" value="&lt;font style=&quot;font-size: 19px;&quot; face=&quot;Times New Roman&quot;&gt;Semantic Misalignment&lt;/font&gt;" style="rounded=0;whiteSpace=wrap;html=1;rotation=0;align=center;verticalAlign=middle;" parent="1" vertex="1">
          <mxGeometry x="1572" y="547" width="120" height="80" as="geometry" />
        </mxCell>
        <mxCell id="ykKe54kiTIuj04Uihu3i-131" value="" style="endArrow=classic;html=1;rounded=0;" parent="1" edge="1">
          <mxGeometry width="50" height="50" relative="1" as="geometry">
            <mxPoint x="1530" y="581" as="sourcePoint" />
            <mxPoint x="1570" y="581" as="targetPoint" />
          </mxGeometry>
        </mxCell>
        <mxCell id="ykKe54kiTIuj04Uihu3i-132" value="&lt;font style=&quot;font-size: 24px;&quot; face=&quot;Times New Roman&quot;&gt;(a) Word Splitation&lt;/font&gt;" style="text;strokeColor=none;align=center;fillColor=none;html=1;verticalAlign=middle;whiteSpace=wrap;rounded=0;" parent="1" vertex="1">
          <mxGeometry x="332.5" y="760" width="245" height="30" as="geometry" />
        </mxCell>
        <mxCell id="ykKe54kiTIuj04Uihu3i-134" value="&lt;font style=&quot;&quot; face=&quot;Times New Roman&quot;&gt;&lt;span style=&quot;font-size: 24px;&quot;&gt;(b) Feature-level Screening&lt;/span&gt;&lt;/font&gt;" style="text;strokeColor=none;align=center;fillColor=none;html=1;verticalAlign=middle;whiteSpace=wrap;rounded=0;" parent="1" vertex="1">
          <mxGeometry x="1142" y="350" width="350" height="30" as="geometry" />
        </mxCell>
        <mxCell id="ykKe54kiTIuj04Uihu3i-135" value="&lt;font style=&quot;&quot; face=&quot;Times New Roman&quot;&gt;&lt;span style=&quot;font-size: 24px;&quot;&gt;(c)&amp;nbsp;&lt;/span&gt;&lt;/font&gt;&lt;font face=&quot;Times New Roman&quot;&gt;&lt;span style=&quot;font-size: 24px;&quot;&gt;Dynamic determination&lt;/span&gt;&lt;/font&gt;" style="text;strokeColor=none;align=center;fillColor=none;html=1;verticalAlign=middle;whiteSpace=wrap;rounded=0;" parent="1" vertex="1">
          <mxGeometry x="1132" y="760" width="350" height="30" as="geometry" />
        </mxCell>
        <mxCell id="DS7Hwc0U4y0r-2BmJJqg-21" value="" style="group" vertex="1" connectable="0" parent="1">
          <mxGeometry x="1310" y="149.5" width="170" height="198" as="geometry" />
        </mxCell>
        <mxCell id="DS7Hwc0U4y0r-2BmJJqg-22" value="" style="group" vertex="1" connectable="0" parent="DS7Hwc0U4y0r-2BmJJqg-21">
          <mxGeometry x="10" y="10.5" width="170" height="198" as="geometry" />
        </mxCell>
        <mxCell id="DS7Hwc0U4y0r-2BmJJqg-17" value="" style="rounded=1;whiteSpace=wrap;html=1;arcSize=9;" vertex="1" parent="DS7Hwc0U4y0r-2BmJJqg-22">
          <mxGeometry width="160" height="120" as="geometry" />
        </mxCell>
        <mxCell id="DS7Hwc0U4y0r-2BmJJqg-15" value="" style="group" vertex="1" connectable="0" parent="DS7Hwc0U4y0r-2BmJJqg-22">
          <mxGeometry x="10" y="10.5" width="160" height="187.5" as="geometry" />
        </mxCell>
        <mxCell id="DS7Hwc0U4y0r-2BmJJqg-13" value="" style="shape=trapezoid;perimeter=trapezoidPerimeter;whiteSpace=wrap;html=1;fixedSize=1;rotation=90;fillColor=#d5e8d4;strokeColor=#82b366;" vertex="1" parent="DS7Hwc0U4y0r-2BmJJqg-15">
          <mxGeometry x="-17.5" y="17.045454545454547" width="100" height="63.311688311688314" as="geometry" />
        </mxCell>
        <mxCell id="DS7Hwc0U4y0r-2BmJJqg-14" value="" style="shape=trapezoid;perimeter=trapezoidPerimeter;whiteSpace=wrap;html=1;fixedSize=1;rotation=-90;fillColor=#d5e8d4;strokeColor=#82b366;" vertex="1" parent="DS7Hwc0U4y0r-2BmJJqg-15">
          <mxGeometry x="60" y="17.045454545454547" width="100" height="63.311688311688314" as="geometry" />
        </mxCell>
        <mxCell id="DS7Hwc0U4y0r-2BmJJqg-18" value="&lt;font face=&quot;Times New Roman&quot;&gt;CAL&lt;/font&gt;" style="rounded=1;whiteSpace=wrap;html=1;arcSize=9;fillColor=#fff2cc;strokeColor=#d6b656;" vertex="1" parent="DS7Hwc0U4y0r-2BmJJqg-15">
          <mxGeometry x="22.5" y="26.785714285714285" width="37.5" height="43.83116883116883" as="geometry" />
        </mxCell>
        <mxCell id="DS7Hwc0U4y0r-2BmJJqg-19" value="&lt;font face=&quot;Times New Roman&quot;&gt;CAL&lt;/font&gt;" style="rounded=1;whiteSpace=wrap;html=1;arcSize=9;fillColor=#fff2cc;strokeColor=#d6b656;" vertex="1" parent="DS7Hwc0U4y0r-2BmJJqg-15">
          <mxGeometry x="82.5" y="26.785714285714285" width="37.5" height="43.83116883116883" as="geometry" />
        </mxCell>
        <mxCell id="DS7Hwc0U4y0r-2BmJJqg-36" value="" style="endArrow=classic;html=1;rounded=0;" edge="1" parent="DS7Hwc0U4y0r-2BmJJqg-15">
          <mxGeometry width="50" height="50" relative="1" as="geometry">
            <mxPoint x="120" y="36.5" as="sourcePoint" />
            <mxPoint x="170" y="36.5" as="targetPoint" />
          </mxGeometry>
        </mxCell>
        <mxCell id="DS7Hwc0U4y0r-2BmJJqg-37" value="" style="endArrow=classic;html=1;rounded=0;" edge="1" parent="DS7Hwc0U4y0r-2BmJJqg-15">
          <mxGeometry width="50" height="50" relative="1" as="geometry">
            <mxPoint x="120" y="62.5" as="sourcePoint" />
            <mxPoint x="170" y="62.5" as="targetPoint" />
          </mxGeometry>
        </mxCell>
        <mxCell id="DS7Hwc0U4y0r-2BmJJqg-30" value="" style="group" vertex="1" connectable="0" parent="1">
          <mxGeometry x="1371" y="147" width="60" as="geometry" />
        </mxCell>
        <mxCell id="DS7Hwc0U4y0r-2BmJJqg-28" value="" style="edgeStyle=segmentEdgeStyle;endArrow=classic;html=1;curved=0;rounded=1;endSize=8;startSize=8;entryX=0.5;entryY=0;entryDx=0;entryDy=0;exitX=0.75;exitY=0;exitDx=0;exitDy=0;" edge="1" parent="DS7Hwc0U4y0r-2BmJJqg-30" source="ykKe54kiTIuj04Uihu3i-85" target="DS7Hwc0U4y0r-2BmJJqg-18">
          <mxGeometry width="50" height="50" relative="1" as="geometry">
            <mxPoint x="-71" y="3" as="sourcePoint" />
            <mxPoint x="-19" y="-67" as="targetPoint" />
            <Array as="points">
              <mxPoint />
            </Array>
          </mxGeometry>
        </mxCell>
        <mxCell id="DS7Hwc0U4y0r-2BmJJqg-29" value="" style="edgeStyle=segmentEdgeStyle;endArrow=classic;html=1;curved=0;rounded=1;endSize=8;startSize=8;entryX=0.5;entryY=0;entryDx=0;entryDy=0;exitX=0.75;exitY=0;exitDx=0;exitDy=0;" edge="1" parent="DS7Hwc0U4y0r-2BmJJqg-30" source="ykKe54kiTIuj04Uihu3i-85" target="DS7Hwc0U4y0r-2BmJJqg-19">
          <mxGeometry width="50" height="50" relative="1" as="geometry">
            <mxPoint x="-69" y="0.28999999999999204" as="sourcePoint" />
            <mxPoint x="10" y="50.28999999999999" as="targetPoint" />
            <Array as="points">
              <mxPoint x="60" />
            </Array>
          </mxGeometry>
        </mxCell>
        <mxCell id="DS7Hwc0U4y0r-2BmJJqg-34" value="" style="edgeStyle=segmentEdgeStyle;endArrow=classic;html=1;curved=0;rounded=1;endSize=8;startSize=8;exitX=0.5;exitY=0;exitDx=0;exitDy=0;entryX=0.5;entryY=1;entryDx=0;entryDy=0;" edge="1" parent="1" source="ykKe54kiTIuj04Uihu3i-98" target="DS7Hwc0U4y0r-2BmJJqg-18">
          <mxGeometry width="50" height="50" relative="1" as="geometry">
            <mxPoint x="1302.5" y="300.86" as="sourcePoint" />
            <mxPoint x="1352.5" y="250.86" as="targetPoint" />
          </mxGeometry>
        </mxCell>
        <mxCell id="DS7Hwc0U4y0r-2BmJJqg-35" value="" style="edgeStyle=segmentEdgeStyle;endArrow=classic;html=1;curved=0;rounded=1;endSize=8;startSize=8;exitX=0.5;exitY=0;exitDx=0;exitDy=0;entryX=0.5;entryY=1;entryDx=0;entryDy=0;" edge="1" parent="1" source="ykKe54kiTIuj04Uihu3i-98" target="DS7Hwc0U4y0r-2BmJJqg-19">
          <mxGeometry width="50" height="50" relative="1" as="geometry">
            <mxPoint x="1320" y="330" as="sourcePoint" />
            <mxPoint x="1370" y="280" as="targetPoint" />
          </mxGeometry>
        </mxCell>
        <mxCell id="DS7Hwc0U4y0r-2BmJJqg-54" value="" style="group" vertex="1" connectable="0" parent="1">
          <mxGeometry x="1502.9981818181818" y="220" width="20.00181818181818" height="87" as="geometry" />
        </mxCell>
        <mxCell id="DS7Hwc0U4y0r-2BmJJqg-46" value="" style="group;rotation=90;fillColor=#FF9999;strokeColor=#b85450;container=0;" vertex="1" connectable="0" parent="DS7Hwc0U4y0r-2BmJJqg-54">
          <mxGeometry x="-33.49818181818182" y="33.5" width="87" height="20" as="geometry" />
        </mxCell>
        <mxCell id="DS7Hwc0U4y0r-2BmJJqg-47" value="" style="rounded=0;whiteSpace=wrap;html=1;fillColor=#FF9999;strokeColor=#b85450;rotation=90;" vertex="1" parent="DS7Hwc0U4y0r-2BmJJqg-54">
          <mxGeometry x="0.0018181818181801646" y="20" width="20" height="20" as="geometry" />
        </mxCell>
        <mxCell id="DS7Hwc0U4y0r-2BmJJqg-48" value="" style="rounded=0;whiteSpace=wrap;html=1;fillColor=#FF9999;strokeColor=#b85450;rotation=90;" vertex="1" parent="DS7Hwc0U4y0r-2BmJJqg-54">
          <mxGeometry x="-1.8181818181817562" y="42" width="23.636363636363637" height="20" as="geometry" />
        </mxCell>
        <mxCell id="DS7Hwc0U4y0r-2BmJJqg-55" value="" style="group" vertex="1" connectable="0" parent="1">
          <mxGeometry x="1502.9981818181818" y="130" width="20.00181818181818" height="87" as="geometry" />
        </mxCell>
        <mxCell id="DS7Hwc0U4y0r-2BmJJqg-39" value="" style="group;rotation=90;fillColor=#CC99FF;strokeColor=#9673a6;container=0;" vertex="1" connectable="0" parent="DS7Hwc0U4y0r-2BmJJqg-55">
          <mxGeometry x="-33.49818181818182" y="33.5" width="87" height="20" as="geometry" />
        </mxCell>
        <mxCell id="DS7Hwc0U4y0r-2BmJJqg-40" value="" style="rounded=0;whiteSpace=wrap;html=1;fillColor=#CC99FF;strokeColor=#9673a6;rotation=90;" vertex="1" parent="DS7Hwc0U4y0r-2BmJJqg-55">
          <mxGeometry x="0.0018181818181801646" y="20" width="20" height="20" as="geometry" />
        </mxCell>
        <mxCell id="DS7Hwc0U4y0r-2BmJJqg-41" value="" style="rounded=0;whiteSpace=wrap;html=1;fillColor=#CC99FF;strokeColor=#9673a6;rotation=90;" vertex="1" parent="DS7Hwc0U4y0r-2BmJJqg-55">
          <mxGeometry x="-1.8181818181817562" y="42" width="23.636363636363637" height="20" as="geometry" />
        </mxCell>
        <mxCell id="DS7Hwc0U4y0r-2BmJJqg-56" value="" style="strokeWidth=1;html=1;shape=mxgraph.flowchart.annotation_2;align=left;labelPosition=right;pointerEvents=1;rotation=-180;" vertex="1" parent="1">
          <mxGeometry x="1527" y="163.75" width="50" height="102.5" as="geometry" />
        </mxCell>
        <mxCell id="DS7Hwc0U4y0r-2BmJJqg-58" value="" style="endArrow=classic;html=1;rounded=0;" edge="1" parent="1">
          <mxGeometry width="50" height="50" relative="1" as="geometry">
            <mxPoint x="1553" y="214.8" as="sourcePoint" />
            <mxPoint x="1581" y="214.8" as="targetPoint" />
          </mxGeometry>
        </mxCell>
        <mxCell id="DS7Hwc0U4y0r-2BmJJqg-59" value="" style="endArrow=classic;html=1;rounded=0;" edge="1" parent="1">
          <mxGeometry width="50" height="50" relative="1" as="geometry">
            <mxPoint x="1334" y="580.75" as="sourcePoint" />
            <mxPoint x="1362" y="580.75" as="targetPoint" />
          </mxGeometry>
        </mxCell>
        <mxCell id="DS7Hwc0U4y0r-2BmJJqg-62" value="" style="edgeStyle=elbowEdgeStyle;elbow=vertical;endArrow=classic;html=1;curved=0;rounded=0;endSize=8;startSize=8;entryX=0.5;entryY=0;entryDx=0;entryDy=0;exitX=1;exitY=0.5;exitDx=0;exitDy=0;" edge="1" parent="1" source="ykKe54kiTIuj04Uihu3i-102" target="ykKe54kiTIuj04Uihu3i-124">
          <mxGeometry width="50" height="50" relative="1" as="geometry">
            <mxPoint x="1570" y="480" as="sourcePoint" />
            <mxPoint x="1620" y="430" as="targetPoint" />
          </mxGeometry>
        </mxCell>
      </root>
    </mxGraphModel>
  </diagram>
</mxfile>
